<?xml version="1.0" standalone="yes"?>
<svg xmlns="http://www.w3.org/2000/svg" width="1017" height="1017">
<path style="fill:#feffff; stroke:none;" d="M0 0L0 1017L1017 1017L1017 0L0 0z"/>
<path style="fill:#0ba1dc; stroke:none;" d="M474 71.4244C445.712 75.1843 418.878 83.6516 395 99.6705C376.693 111.952 360.982 127.735 348.67 146C282.643 243.954 335.083 379.843 449 409.846C469.665 415.288 491.856 416.344 513 413.714C537.503 410.665 560.919 402.117 582 389.399C690.066 324.206 688.336 160.354 581 95.6011C564.927 85.9045 547.451 78.5514 529 74.8009C511.326 71.2086 492.009 69.0308 474 71.4244z"/>
<path style="fill:#feffff; stroke:none;" d="M487 104L487 79C455.941 79 425.973 88.7805 400 105.695C395.231 108.801 379.207 117.729 379.207 124.039C379.207 128.094 385.403 132.421 388 134.999C389.94 136.925 392.228 139.934 395 140.658C400.971 142.218 415.501 127.094 421 123.861C442.28 111.35 463.354 108.39 487 104M495 79L495 104C516.503 106.718 533.853 112.032 554 119.633C558.003 121.144 561.983 119.489 566 120.653C575.939 123.533 582.87 132.673 586 142C590.421 138.885 602.793 129.872 602.793 124C602.793 116.015 583.025 105.842 577 102.204C552.157 87.2025 523.988 79 495 79z"/>
<path style="fill:#0ba1dc; stroke:none;" d="M305 143C326.896 133.241 345.603 105.018 359 86C328.925 90.4415 310.82 114.803 305 143M624 86C638.235 106.227 655.177 130.445 677 143C674.723 115.128 651.741 90.0969 624 86M507 94L507 98L526 95C520.823 91.4633 512.873 92.9097 507 94M497 97C498.546 101.445 503.667 103.018 508 104C505.218 97.8114 504.071 95.7084 497 97M310 108C275.915 128.105 282 159.027 282 193C287.952 188.201 292.281 181.654 298.015 176.576C314.338 162.121 332.85 150.373 336 127L293 163L301.71 124L310 108M672 109C682.12 126.765 685.434 144.083 690 164L689 164C682.938 152.322 668.823 147.154 659.004 139.192C654.387 135.448 651.212 129.791 646 127C652.387 149.506 665.225 159.072 682 174.171C688.577 180.09 693.853 187.859 701 193C701 166.399 708.147 117.295 672 109z"/>
<path style="fill:#feffff; stroke:none;" d="M487 138L487 112C462.652 112.503 438.177 120.897 418 134.355C414.19 136.896 403.207 142.805 403.207 148.015C403.207 152.091 409.388 156.407 412 158.999C413.927 160.912 416.234 163.96 419 164.654C424.025 165.915 434.407 154.836 439 152.312C453.712 144.226 470.115 138.725 487 138M495 112L495 138C516.792 138.45 534.487 147.732 553 158L543 150L543 149L550 151L548 146L565 162L563 164C573.577 159.064 572.176 148.283 560 153C558.476 119.653 522.485 112.567 495 112z"/>
<path style="fill:#0ba1dc; stroke:none;" d="M569 117L576 123C575.093 118.749 573.257 117.486 569 117z"/>
<path style="fill:#feffff; stroke:none;" d="M327 239L353 239C353.022 205.669 368.14 171.888 391 148C387.897 143.595 378.057 130.179 372.039 130.921C364.283 131.878 354.578 150.851 350.811 157C335.889 181.359 327.019 210.355 327 239M630 239L656 239C650.031 206.847 646.748 179.303 627.996 151C624.731 146.072 616.7 131.207 610 131.207C605.903 131.207 601.612 137.382 599 140C596.816 142.189 593.212 144.836 592.458 148C591.66 151.347 595.175 154.756 597.174 157C602.811 163.331 609.098 168.836 613.775 176C624.77 192.838 628.445 219.296 630 239z"/>
<path style="fill:#0ba1dc; stroke:none;" d="M273 145C252.924 171.33 255.427 204.604 265.95 234C268.279 240.506 269.309 248.135 273 254C277.768 243.298 282.378 232.737 289.029 223C299.853 207.153 313.245 192.096 315 172L314 172C301.536 189.336 280.186 200.115 275 222L274 222L271.039 169L273 145M547 145L548 146L547 145M708 145C714.853 169.376 707.997 196.128 708 221L707 221C704.227 205.394 691.732 197.02 681.004 186.911C676.022 182.216 672.427 176.153 667 172C670.145 193.297 684.127 208.641 695.308 226C701.045 234.908 704.417 245.171 710 254C720.224 227.299 729.451 199.523 721.845 171C719.599 162.578 715.893 149.655 708 145z"/>
<path style="fill:#feffff; stroke:none;" d="M443 190L444 190C456.389 180.175 470.826 172.334 487 172L487 146C470.378 146.046 454.111 151.637 440 160.204C436.319 162.44 427.207 166.953 427.207 172.004C427.207 177.838 439.102 186.102 443 190M495 146L495 172C510.902 172.328 526.402 179.351 538 190L539 190L557 172C543.872 154.847 515.873 146.058 495 146M396 153C374.203 175.777 361 207.437 361 239L387 239C387.002 223.048 391.634 206.979 399.312 193C402.211 187.721 413.795 176.828 413.079 171C412.322 164.832 400.791 156.375 396 153M292 163L293 164L292 163M574 165L568 171L568 172L584 189C583.24 194.627 589.368 212.04 595 214L596 239L622 239C621.864 222.515 617.985 204.936 611 190C604.114 191.857 602.004 185.431 597.7 181.26C591.281 175.038 581.927 169.057 574 165M420 177C403.263 194.5 396.954 215.624 394 239C397.52 239 403.476 240.118 406.486 237.972C409.747 235.648 409.763 229.346 412.109 226.059C415.567 221.212 424.367 218.35 430 217L430 216L421 217L421 216C426.39 214.853 438.372 199.695 436.694 194C434.894 187.894 425.04 180.55 420 177M562 177C557.669 181.331 546.805 188.709 545.907 195C544.811 202.67 556.665 207.471 560.671 212.044C563.336 215.087 564.603 218.721 568 221C574.505 210.922 577.949 218.646 576 227C581.334 228.204 585.099 223.411 584.951 218C584.702 208.845 577.443 204.372 574 197L577 198C574.161 190.245 568.565 182.024 562 177M487 206L487 180C476.381 180.029 458.196 184.058 451.662 193.518C448.298 198.388 462.48 211.268 467 212.172C472.257 213.223 480.809 206.478 487 206M495 180L495 206L508 203L507 209C516.809 214.345 522.991 207.506 529 199L526 200L533 196C524.919 185.054 508.097 180.036 495 180z"/>
<path style="fill:#0ba1dc; stroke:none;" d="M560 201L566 200L565 194L569 194C568.003 181.193 561.671 197.45 560 201M589 191C590.004 196.932 591.113 209.284 596 213C595.938 205.505 594.486 196.475 589 191M522 199L521 203L526 201L522 199z"/>
<path style="fill:#feffff; stroke:none;" d="M443 201L436 212L459 216L443 201M532 208L537 204L541 204L538 210L538 211L543 215L542 211L545 212L546 211C542.408 203.456 537.627 200.277 532 208z"/>
<path style="fill:#0ba1dc; stroke:none;" d="M480 204L479 206L480 204M520 204L516 210L520 204M250 210C233.932 246.294 254.501 292.552 285 315C282.345 293.995 291.924 274.816 297.573 255C300.872 243.425 301.25 231.549 304 220C298.759 223.432 295.855 231.707 292.576 237C282.803 252.772 275 265.006 275 284L274 284L256.695 240L250 210M732 210C729.295 219.151 730.053 228.755 726.575 238C720.97 252.898 710.327 266.759 709 283L708 283C707.983 257.405 689.325 241.279 680 219L679 219C679.092 252.418 698 281.621 698 315L699 315C717.888 289.938 738.054 270.517 738 237C737.987 228.622 737.144 216.904 732 210z"/>
<path style="fill:#feffff; stroke:none;" d="M483 214L483 215L483 217L483 218C485.449 222.473 470.376 230.809 467 235L476 231C474.728 235.158 472.137 236.92 468 238L468 239L473 242L468 243L468 244L474 240C478.781 242.42 482.75 241.97 484 248C495.841 254.166 478.951 264.451 472 265L472 266L480 270L484 268L483 272C486.582 272.074 491.463 273.551 494.722 271.667C500.651 268.242 499.524 262.275 508 262L507 265L511 255L507 256L506 252L512 253L512 251L509 250C511.394 246.043 508.573 243.292 506 240L505 240L503 242L508 236L506 228L487 214L492 215L483 214M573 232L574 236L570 238L570 239L588 239L588 232L586 233L587 225L573 232M411 239L420 239L421 234C415.952 232.567 412.516 233.775 411 239z"/>
<path style="fill:#0ba1dc; stroke:none;" d="M475 238L480 238L480 235L475 238z"/>
<path style="fill:#feffff; stroke:none;" d="M449 251L463 251L469 247C457.84 242.275 456.501 239.506 449 251M473 244C471.747 249.227 469.773 253.285 465 256L467 261L469 261L480 247L480 246L473 244M327 247C327.026 286.781 344.043 327.81 372 356L373 356C376.946 352.054 389.73 343.094 388.94 337C388.074 330.323 377.949 324.077 374 319C367.633 318.728 362.547 310.882 359 306L350 305L349 305L343 301L344 310L343 310C338.497 299.021 336.065 291.653 344 282L345 286L349 286L348 283L359 285L353 247L327 247M361 247L367 285C383.08 284.943 373.524 264.461 388 260L387 247L361 247M394 247L396 263L401 263C400.488 256.452 400.669 252.836 404 247L394 247M408 247C407.926 251.442 406.343 252.664 402 253L407 272C413.408 280.327 408.895 300.374 418.314 306.248C422.765 309.024 436.694 294.375 436.808 290C436.926 285.476 430.338 279.045 428.259 275C423.629 265.99 421.714 256.854 420 247L408 247M569 247L581 263L565.424 266.985L542 288C549.289 289.817 551.08 283.688 557 281C559.459 291.33 554.782 297.872 551 307L559 298L560 298L563 308L564 308C576.912 289.099 587.984 270.723 588 247L569 247M596 247C595.688 262.139 591.058 278.839 583.572 292C579.977 298.319 571.113 306.174 569.493 313C568.392 317.639 574.559 321.395 578 323L578 317C583.722 319.975 584.871 325.959 585 332C592.689 328.385 598.065 319.082 602.385 312C614.206 292.622 621.811 269.857 622 247L596 247M630 247C628.196 269.851 622.634 292.169 610.799 312C606.826 318.658 602.492 325.005 597.566 331C595.805 333.143 592.563 335.882 593.346 339C594.04 341.766 597.088 344.074 599.001 346C601.6 348.618 605.909 354.793 609.996 354.793C616.347 354.793 624.521 339.716 627.667 335C646.542 306.701 650.008 279.274 656 247L630 247z"/>
<path style="fill:#0ba1dc; stroke:none;" d="M415 251L415 263L416 263C417.396 258.867 418.914 253.993 415 251z"/>
<path style="fill:#feffff; stroke:none;" d="M429 256C430.957 262.897 434.958 280.448 443.093 282.654C451.014 284.802 462.075 267.54 459 261L458 261L457 267L448 263L447 267C441.986 260.529 436.893 258.065 429 256z"/>
<path style="fill:#0ba1dc; stroke:none;" d="M580 259L584 256L580 259M414 265L416 272L417 272L414 265M451 267L454 271L454 267L451 267z"/>
<path style="fill:#feffff; stroke:none;" d="M502.333 268.667L502.667 269.333L502.333 268.667z"/>
<path style="fill:#0ba1dc; stroke:none;" d="M302 270L294.289 307L296 343L295 343L258.668 301L245 279C245.03 324.258 279.016 352.316 316 372C313.374 356.742 308.327 342.849 308.015 327C307.669 309.407 313.567 285.463 302 270M679 270L666 372C704.453 355.409 737 322.51 737 279L736 279C729.09 296.812 716.408 309.093 703.83 323C697.92 329.534 690.492 335.752 687 344L686 344C690.088 324.185 688.747 307.518 683.873 288C682.49 282.457 682.437 274.513 679 270z"/>
<path style="fill:#feffff; stroke:none;" d="M501 271L502 280L498 277L490 280L493 286L488 288L487 287C488.897 279.872 483.407 279.671 478 277.536C474.828 276.283 470.557 272.535 467 273.446C462.846 274.51 450.089 286.272 451.346 290.907C452.245 294.224 457.274 296.571 460 298.127C463.185 299.946 466.523 301.474 470 302.644C475.049 304.344 479.811 305.519 485 304L485 302C482.398 299.259 482.831 297.499 484 294L490 295L488 289C493.038 287.286 496.174 284.349 497 279L498 279L499 282C505.63 280.211 506.043 275.268 501 271z"/>
<path style="fill:#0ba1dc; stroke:none;" d="M485 282L484 286L487 282L485 282z"/>
<path style="fill:#feffff; stroke:none;" d="M520 282L521 285L517 285L517 291L527 283L520 282M503 292L508 298C495.816 292.064 496.301 299.309 486 303L486 304L503 301L503 305C510.518 305.949 529.816 302.606 527 292L518 296L514 293L515 298L503 292M487 340L487 338C479.251 337.995 467.702 334.928 467.133 325C466.855 320.159 470.858 315.02 473 311C466.249 309.437 459.884 306.592 454 302.934C451.237 301.217 447.435 297.102 444 297.192C434.577 297.438 423.587 313.25 432.005 319.985C447.589 332.455 467.359 338.45 487 340M530 300L530 301C536.678 304.883 542.36 305.999 550 306L530 300M562 352L581 338C577.218 332.63 572.104 327.323 567 323.164C565.07 321.591 560.85 319.367 559.752 323.19C558.553 327.361 565.536 328.788 566.748 332.105C567.764 334.885 563.495 348.927 562 352z"/>
<path style="fill:#0ba1dc; stroke:none;" d="M317 323C322.694 347.895 321.674 373.757 338 395L290 368.308L263 347C269.68 391.566 326.769 410.877 365 414C357.365 403.032 350.718 393.724 346.053 381C339.253 362.454 333.769 335.378 317 323M664 323C647.272 344.093 642.688 369.17 631.691 393C628.125 400.727 622.644 406.972 618 414C659.357 408.659 709.272 392.347 720 346L692 368.771L646 394C655.811 376.307 659.988 360.044 662.166 340C662.739 334.723 665.563 328.096 664 323z"/>
<path style="fill:#feffff; stroke:none;" d="M426 325C433.329 339.889 406.406 331.494 402 339C427.667 358.344 453.951 373 487 373L485.972 348.603L465 344.116L426 325M394 329L398 331L394 329M495 337L495 340L507 339L495 337M296 343L297 344L296 343M378 361L378 362C406.261 390.028 447.137 406.995 487 407L487 381C465.397 380.986 442.7 374.275 424 363.573C417.33 359.755 410.975 355.375 405 350.54C402.588 348.588 399.456 344.707 396 345.037C389.828 345.627 382.197 356.804 378 361M495 381L495 407C535.455 407 575.879 389.871 605 362C601.829 357.498 592.13 344.267 586 344.917C581.794 345.364 577.231 350.879 574 353.346C566.44 359.117 558.166 363.719 550 368.548C534.877 377.49 512.46 380.998 495 381M495 373L525 369C522.922 365.634 518.673 363.474 517.13 359.946C515.369 355.918 518.426 352.175 514.602 348.573C511.822 345.954 508.512 346.132 505 346.576C490.754 348.378 495 360.982 495 373z"/>
<path style="fill:#0ba1dc; stroke:none;" d="M353 374C359.983 390.773 369.933 417.389 389 423L389 424C368.559 423.831 343.661 423.381 324 417.561C315.956 415.18 309.591 410.15 302 407C305.505 413.866 311.001 419.066 317 423.789C352.79 451.97 388.493 434.102 428 429L428 428C416.89 423.075 405.393 420.069 396 411.816C382.558 400.005 369.781 381.105 353 374M628 374C604.781 391.499 585.739 422.46 555 427L555 429C593.948 434.245 630.947 452.268 666 423.535C671.743 418.828 677.06 413.299 681 407C672.38 410.263 665.07 415.741 656 418.255C637.121 423.487 613.541 423.597 594 424L594 423C608.883 418.248 615.836 401.823 622.247 389C624.405 384.683 628.815 378.892 628 374z"/>
<path style="fill:#feffff; stroke:none;" d="M645 394L644 396L645 394M338 395L339 396L338 395M389 424L390 425L389 424M592.667 424.333L593.333 424.667L592.667 424.333z"/>
<path style="fill:#0ba1dc; stroke:none;" d="M345 445C348.931 453.256 359.82 458.651 368 461.985C388.831 470.476 410.579 467.22 430 456.691C448.302 446.769 459.301 435 481 435C472.173 446.248 453.215 452.376 442 462.001C432.71 469.973 426.776 473.549 437 483L438 483C449.839 470.912 460.952 458.725 475 449.026C479.217 446.114 484.818 441.209 490 440.384C495.427 439.52 501.851 445.162 506 448.026C519.668 457.458 534.386 469.352 544 483L554 476C546.109 459.218 517.592 443.908 501 437L501 436C521.857 431.034 536.318 447.631 553 457.127C572.511 468.234 595.299 469.854 616 461.395C623.78 458.216 634.095 452.708 638 445C628.495 448.952 619.49 452.46 609 452.741C584.067 453.408 563.269 437.433 540 431.478C522.77 427.069 507.958 431.776 491 431.656C478.916 431.57 467.396 427.97 455 429.17C426.789 431.9 403.749 451.974 375 452.741C364.198 453.029 354.721 449.042 345 445M304 563L315 563C318.236 547.007 333.425 556.372 335 568L319 568L319 576L335 576C333.425 587.628 318.236 596.993 315 581L304 581C308.774 603.825 342.911 603.319 344.907 579C345.664 569.771 345.785 558.304 338.671 551.34C326.413 539.34 307.164 547.914 304 563M485 581C482.187 581 478.114 580.31 475.684 582.028C471.505 584.982 470.378 590.495 464.001 589.728C451.6 588.236 451.862 564.368 458.419 557.228C465 550.063 473.095 556.706 475 564L485 564C482.649 537.246 445.178 542.953 444.039 568C443.614 577.352 444.325 587.266 452.04 593.721C464.262 603.948 482.766 595.904 485 581M492 563L503 563C506.236 547.007 521.425 556.372 523 568L507 568L507 576L523 576C521.425 587.628 506.236 596.993 503 581L492 581C496.642 603.192 529.849 603.749 532.815 580C533.979 570.679 533.834 558.353 526.671 551.34C514.413 539.34 495.164 547.914 492 563M254 547L254 597L264 597L264 575L284 575L284 597L295 597L295 547L284 547L284 567L264 567L264 547L254 547M355 547L355 597L365 597L365 555L388 555L388 547L355 547M400 547C399.999 558.413 401.801 585.091 388 589L388 609L398 609L398 597L429 597L429 609L438 609L439 589L433 589L433 547L400 547M544 547L544 597L554 597L554 575L574 575L574 597L585 597L585 547L574 547L574 567L554 567L554 547L544 547z"/>
<path style="fill:#feffff; stroke:none;" d="M410 555L404 589L423 589L423 555L410 555z"/>
<path style="fill:#0ba1dc; stroke:none;" d="M665 621C666.684 636.117 685.803 634.291 689 621L681 621C678.434 626.069 674.566 626.069 672 621L665 621M406 652L417 652C420.236 636.007 435.425 645.372 437 657L421 657L421 665L437 665C435.425 676.628 420.236 685.993 417 670L406 670C410.774 692.825 444.911 692.319 446.907 668C447.664 658.771 447.785 647.304 440.671 640.34C428.413 628.34 409.164 636.914 406 652M497 670C494.187 670 490.114 669.31 487.684 671.028C483.505 673.982 482.378 679.495 476.001 678.728C463.6 677.236 463.862 653.368 470.419 646.228C477 639.063 485.095 645.706 487 653L497 653C494.649 626.246 457.178 631.953 456.039 657C455.614 666.352 456.325 676.266 464.04 682.721C476.262 692.948 494.766 684.904 497 670M249 636C256.767 654.024 266 665.807 266 686L276 686C276 666.301 283.932 653.235 293 636C278.343 636 276.278 645.323 271 658C264.434 645.683 264.472 636 249 636M300 636L300 686L310 686L310 664L330 664L330 686L341 686L341 636L330 636L330 656L310 656L310 636L300 636M362 636C361.999 647.413 363.801 674.091 350 678L350 698L360 698L360 686L391 686L391 698L400 698L401 678L395 678L395 636L362 636M502 636L502 644L518 644L518 686L528 686L528 644L543 644L543 636L502 636M552 636L552 686L562 686L562 664L582 664L582 686L593 686L593 636L582 636L582 656L562 656L562 636L552 636M604 636L604 686C621.852 686 624.892 666.21 635 654L635 686L645 686L645 636C629.892 636 620.921 654.559 616 668L615 668L615 636L604 636M656 636L656 686C673.852 686 676.892 666.21 687 654L687 686L697 686L697 636C681.892 636 672.921 654.559 668 668L667 668L667 636L656 636z"/>
<path style="fill:#feffff; stroke:none;" d="M372 644L366 678L385 678L385 644L372 644z"/>
<path style="fill:#0ba1dc; stroke:none;" d="M359 709C360.684 724.117 379.803 722.291 383 709L375 709C372.434 714.069 368.566 714.069 366 709L359 709M253 724L253 774C262.742 774 276.607 776.474 284.957 770.348C293.551 764.043 292.987 750.541 283.996 745.005C278.029 741.332 270.698 742 264 742L264 732L286 732L286 724L253 724M296 774C298.953 774 302.977 774.665 305.722 773.397C309.225 771.778 308.808 766.999 311.51 764.603C320.248 756.858 330.084 765.724 332 774L343 774C340.618 760.156 333.184 746.118 328.192 733C326.147 727.625 323.491 721.274 316.278 724.603C312.298 726.44 310.992 734.247 309.576 738C305.05 750 300.616 762.035 296 774M350 724L350 774C367.852 774 370.892 754.21 381 742L381 774L391 774L391 724C375.892 724 366.921 742.559 362 756L361 756L361 724L350 724M403 724L403 774L413 774L413 732L436 732L436 724L403 724M441 724C444.812 733.157 468.456 765.532 449 767L449 775C470.387 774.821 477.161 740.67 484 724L472 724L463 747C457.915 734.607 455.692 724 441 724M488 724C491.812 733.157 515.456 765.532 496 767L496 775C517.387 774.821 524.161 740.67 531 724L519 724L510 747C504.915 734.607 502.692 724 488 724M545 724C544.764 735.433 547.799 762.113 534 766L534 774C557.605 773.805 552.867 748.881 555 732L568 732L568 774L578 774L578 724L545 724M598 724C597.764 735.433 600.799 762.113 587 766L587 774C610.605 773.805 605.867 748.881 608 732L621 732L621 774L631 774L631 724L598 724M639 774C641.953 774 645.977 774.665 648.722 773.397C652.225 771.778 651.808 766.999 654.51 764.603C663.248 756.858 673.084 765.724 675 774L686 774C683.618 760.156 676.184 746.118 671.192 733C669.147 727.625 666.491 721.274 659.278 724.603C655.298 726.44 653.992 734.247 652.576 738C648.05 750 643.615 762.035 639 774M694 724L694 774L704 774L704 732L727 732L727 724L694 724M724 774C726.953 774 730.977 774.665 733.722 773.397C737.225 771.778 736.808 766.999 739.51 764.603C748.248 756.858 758.084 765.724 760 774L771 774C768.618 760.156 761.184 746.118 756.192 733C754.147 727.625 751.491 721.274 744.278 724.603C740.297 726.44 738.992 734.247 737.576 738C733.05 750 728.615 762.035 724 774z"/>
<path style="fill:#feffff; stroke:none;" d="M319 738L314 755L326 755L319 738M662 738L657 755L669 755L662 738M747 738L742 755L754 755L747 738M264 750L264 766C268.259 766 274.154 766.992 277.772 764.258C282.515 760.673 281.389 752.956 275.956 750.742C272.415 749.299 267.75 750 264 750z"/>
<path style="fill:#0ba1dc; stroke:none;" d="M252 809L252 859L259 859L259 822L260 822C262.186 831.225 269.527 858.191 280 859L294 823L295 823L295 859L302 859L302 809C286.359 809.012 282.785 836.633 277 849C271.147 836.488 268.01 809.012 252 809M328 809.533C303.045 815.599 310.576 865.478 340 858.468C365.067 852.495 357.679 802.319 328 809.533M366 809L366 859L373 859L373 836L397 836L397 859L404 859L404 809L397 809L397 832L373 832L373 809L366 809M418 809L418 859L424 859L424 827L426.318 815.028L449 814L449 809L418 809M468 809.533C443.045 815.599 450.576 865.478 480 858.468C505.067 852.495 497.679 802.319 468 809.533M511 809C511 821.796 516.325 848.775 501 854L501 859C522.712 858.005 518 829.227 518 814L536 814L536 859L543 859L543 809L511 809M573 809C575.133 820.968 588.568 833.975 588.037 846C587.786 851.694 573.853 855.365 575.176 857.455C578.539 862.769 589.826 857.337 592.351 853.956C600.802 842.639 608.281 822.597 612 809L604 809L592 838C588.737 828.414 584.614 809.138 573 809M626 809C626 821.796 631.325 848.775 616 854L616 859C637.712 858.005 633 829.227 633 814L651 814L651 859L658 859L658 809L626 809M708 843L701 843C699.871 853.133 688.552 857.736 681.225 849.891C675.979 844.275 676.502 835.168 677.093 828C678.307 813.279 699.133 808.25 701 825L708 825C707.255 810.638 689.682 803.686 678.174 812.109C670.022 818.074 669.895 827.87 670.004 837C670.094 844.531 672.268 852.306 679.04 856.517C690.63 863.723 707.271 857.019 708 843z"/>
<path style="fill:#feffff; stroke:none;" d="M329.004 814.742C313.926 820.582 318.14 861.277 338.999 853.258C355.335 846.977 349.954 806.628 329.004 814.742M469.004 814.742C453.926 820.582 458.14 861.277 478.999 853.258C495.335 846.977 489.954 806.628 469.004 814.742z"/>
<path style="fill:#e66ba3; stroke:none;" d="M254 923L255 924L254 923z"/>
<path style="fill:#dc5f36; stroke:none;" d="M255.004 923.648C241.904 926.128 245.811 946.186 258.999 943.652C271.788 941.195 267.561 921.271 255.004 923.648z"/>
<path style="fill:#e66ba3; stroke:none;" d="M258.667 923.333L259.333 923.667L258.667 923.333M284 923L284 924L288 924L284 923z"/>
<path style="fill:#0ba1dc; stroke:none;" d="M312 923L312 924L317 924L312 923z"/>
<path style="fill:#e66ba3; stroke:none;" d="M340.667 923.333L341.333 923.667L340.667 923.333z"/>
<path style="fill:#dc5f36; stroke:none;" d="M342.001 923.627C328.979 925.729 332.05 945.427 344.996 943.771C358.224 942.079 355.089 921.513 342.001 923.627z"/>
<path style="fill:#e66ba3; stroke:none;" d="M345.667 923.333L346.333 923.667L345.667 923.333M370 923L370 924L375 924L370 923z"/>
<path style="fill:#0ba1dc; stroke:none;" d="M399.001 923.588C385.971 926.955 390.475 946.719 403.985 943.605C417.015 940.602 411.593 920.334 399.001 923.588z"/>
<path style="fill:#e66ba3; stroke:none;" d="M456 923L457 924L456 923z"/>
<path style="fill:#dc5f36; stroke:none;" d="M457.001 923.613C443.957 926.731 448.541 947.226 461.996 943.566C474.286 940.222 469.4 920.649 457.001 923.613z"/>
<path style="fill:#e66ba3; stroke:none;" d="M461 923L462 924L461 923M485 923L485 924L491 924L485 923M514 923L514 924L520 924L514 923M544 923L544 924L548 924L544 923M573 923L573 924L577 924L573 923M601 923L602 924L601 923z"/>
<path style="fill:#2b785c; stroke:none;" d="M602.001 923.573C588.398 926.204 592.334 946.396 605.996 943.718C618.525 941.262 614.619 921.133 602.001 923.573z"/>
<path style="fill:#0ba1dc; stroke:none;" d="M630.001 923.587C616.418 927.141 622.341 947.389 635.985 943.566C648.264 940.125 642.39 920.345 630.001 923.587M659 923L659 924L663 924L659 923M687 923L688 924L687 923z"/>
<path style="fill:#2b785c; stroke:none;" d="M688.001 923.613C674.925 926.738 679.763 947.123 692.999 943.566C705.757 940.136 700.623 920.595 688.001 923.613z"/>
<path style="fill:#0ba1dc; stroke:none;" d="M692 923L693 924L692 923z"/>
<path style="fill:#e66ba3; stroke:none;" d="M716 923L717 924L716 923z"/>
<path style="fill:#2b785c; stroke:none;" d="M717.004 923.598C703.891 926.433 708.493 947.213 721.999 943.566C734.679 940.142 729.587 920.877 717.004 923.598z"/>
<path style="fill:#e66ba3; stroke:none;" d="M721 923L722 924L721 923M251 924L252 925L251 924M281 924L282 925L281 924z"/>
<path style="fill:#dc5f36; stroke:none;" d="M282.015 924.742C270.638 929.206 277.27 947.498 288.995 943.103C301.352 938.471 294.274 919.933 282.015 924.742z"/>
<path style="fill:#e66ba3; stroke:none;" d="M290 924L291 925L290 924z"/>
<path style="fill:#2b785c; stroke:none;" d="M310.044 924.742C298.369 929.493 307.17 948.034 318.957 942.991C331.244 937.733 322.283 919.762 310.044 924.742z"/>
<path style="fill:#0ba1dc; stroke:none;" d="M319 924L320 925L319 924z"/>
<path style="fill:#e66ba3; stroke:none;" d="M338 924L339 925L338 924M348 924L349 925L348 924M367 924L368 925L367 924z"/>
<path style="fill:#dc5f36; stroke:none;" d="M368.043 924.742C356.412 929.453 364.533 947.65 375.995 943.257C388.811 938.344 380.723 919.607 368.043 924.742z"/>
<path style="fill:#e66ba3; stroke:none;" d="M377 924L378 925L377 924M426.019 924.742C414.247 929.399 422.435 947.754 433.985 942.99C445.9 938.075 438.03 919.991 426.019 924.742M464 924L465 925L464 924M483 924L484 925L483 924z"/>
<path style="fill:#dc5f36; stroke:none;" d="M484.015 924.742C472.055 929.454 480.061 947.909 491.985 942.99C503.88 938.082 496.135 919.968 484.015 924.742M512.044 925.028C500.687 931.081 510.48 948.863 521.895 942.543C533.111 936.334 523.368 918.993 512.044 925.028z"/>
<path style="fill:#e66ba3; stroke:none;" d="M521 924L522 925L521 924M541 924L542 925L541 924z"/>
<path style="fill:#dc5f36; stroke:none;" d="M542.015 924.742C530.656 929.203 537.465 947.563 548.996 943.254C561.45 938.6 554.414 919.874 542.015 924.742z"/>
<path style="fill:#e66ba3; stroke:none;" d="M550 924L551 925L550 924z"/>
<path style="fill:#dc5f36; stroke:none;" d="M570.019 925.028C559.159 930.699 567.726 948.575 578.985 942.82C590.872 936.744 581.698 918.929 570.019 925.028z"/>
<path style="fill:#e66ba3; stroke:none;" d="M579 924L580 925L579 924M598 924L599 925L598 924z"/>
<path style="fill:#0ba1dc; stroke:none;" d="M656 924L657 925L656 924z"/>
<path style="fill:#2b785c; stroke:none;" d="M657.043 924.742C645.427 929.446 653.463 947.585 664.985 943.106C677.444 938.262 669.476 919.708 657.043 924.742z"/>
<path style="fill:#0ba1dc; stroke:none;" d="M695 924L696 925L695 924z"/>
<path style="fill:#e66ba3; stroke:none;" d="M724 924L725 925L724 924M250 925L251 926L250 925M263 925L264 926L263 925M279 925L280 926L279 925M291 925L292 926L291 925M452 925L453 926L452 925M481 925L482 926L481 925M494 925L495 926L494 925M510 925L511 926L510 925M523 925L524 926L523 925M539 925L540 926L539 925M568 925L569 926L568 925z"/>
<path style="fill:#0ba1dc; stroke:none;" d="M667 925L668 926L667 925z"/>
<path style="fill:#e66ba3; stroke:none;" d="M712 925L713 926L712 925M264 926L265 927L264 926M278 926L279 927L278 926M451 926L452 927L451 926M480 926L481 927L480 926M495 926L496 927L495 926M509 926L510 927L509 926M524 926L525 927L524 926M538 926L539 927L538 926M567 926L568 927L567 926M248 927L249 928L248 927M265 927L266 928L265 927M277 927L278 928L277 927M450 927L451 928L450 927M467 927L468 928L467 927M479 927L480 928L479 927M496 927L497 928L496 927M508 927L509 928L508 927M525 927L526 928L525 927M537 927L538 928L537 927M566 927L567 928L566 927z"/>
<path style="fill:#0ba1dc; stroke:none;" d="M669 927L670 928L669 927z"/>
<path style="fill:#e66ba3; stroke:none;" d="M294 928L295 929L294 928M334 928L335 929L334 928M363 928L364 929L363 928M381 928L382 929L381 928M468 928L469 929L468 928M554 928L555 929L554 928M583 928L584 929L583 928M594 928L595 929L594 928z"/>
<path style="fill:#0ba1dc; stroke:none;" d="M652 928L653 929L652 928M699 928L700 929L699 928z"/>
<path style="fill:#e66ba3; stroke:none;" d="M728 928L729 929L728 928M266 929L267 930L266 929M276 929L277 930L276 929M449 929L450 930L449 929M478 929L479 930L478 929M497 929L498 930L497 929M507 929L508 930L507 929M526 929L527 930L526 929M536 929L537 930L536 929M709 929L710 930L709 929M295 930L296 931L295 930z"/>
<path style="fill:#0ba1dc; stroke:none;" d="M324 930L325 931L324 930z"/>
<path style="fill:#e66ba3; stroke:none;" d="M333 930L334 931L333 930M353 930L354 931L353 930M362 930L363 931L362 930M382.333 930.667L382.667 931.333L382.333 930.667M555 930L556 931L555 930M584 930L585 931L584 930z"/>
<path style="fill:#0ba1dc; stroke:none;" d="M651 930L652 931L651 930z"/>
<path style="fill:#e66ba3; stroke:none;" d="M246.333 931.667L246.667 932.333L246.333 931.667z"/>
<path style="fill:#0ba1dc; stroke:none;" d="M304.333 931.667L304.667 932.333L304.333 931.667z"/>
<path style="fill:#e66ba3; stroke:none;" d="M469.333 931.667L469.667 932.333L469.333 931.667M506 931L506 936L507 936L506 931M564 931L564 936L565 936L564 931z"/>
<path style="fill:#0ba1dc; stroke:none;" d="M671.333 931.667L671.667 932.333L671.333 931.667z"/>
<path style="fill:#e66ba3; stroke:none;" d="M729 931L730 932L729 931M275 932L275 936L276 936L275 932M448 932L448 935L449 935L448 932M477 932L477 935L478 935L477 932M498 932L498 935L499 935L498 932M527 932L527 935L528 935L527 932M535 932L535 935L536 935L535 932M267.333 933.667L267.667 934.333L267.333 933.667M246.333 935.667L246.667 936.333L246.333 935.667z"/>
<path style="fill:#0ba1dc; stroke:none;" d="M304.333 935.667L304.667 936.333L304.333 935.667z"/>
<path style="fill:#e66ba3; stroke:none;" d="M469.333 935.667L469.667 936.333L469.333 935.667z"/>
<path style="fill:#0ba1dc; stroke:none;" d="M671.333 935.667L671.667 936.333L671.333 935.667z"/>
<path style="fill:#e66ba3; stroke:none;" d="M295 936L296 937L295 936M333.333 936.667L333.667 937.333L333.333 936.667M362.333 936.667L362.667 937.333L362.333 936.667M382 936L383 937L382 936z"/>
<path style="fill:#0ba1dc; stroke:none;" d="M651 936L652 937L651 936M700 936L701 937L700 936z"/>
<path style="fill:#e66ba3; stroke:none;" d="M729 936L730 937L729 936z"/>
<path style="fill:#0ba1dc; stroke:none;" d="M324 937L325 938L324 937z"/>
<path style="fill:#e66ba3; stroke:none;" d="M353 937L354 938L353 937M526.333 937.667L526.667 938.333L526.333 937.667M555 937L556 938L555 937M584 937L585 938L584 937M613 937L614 938L613 937M247 938L248 939L247 938M276 938L277 939L276 938z"/>
<path style="fill:#0ba1dc; stroke:none;" d="M305 938L306 939L305 938z"/>
<path style="fill:#e66ba3; stroke:none;" d="M449 938L450 939L449 938M468 938L469 939L468 938M497 938L498 939L497 938M507 938L508 939L507 938M565 938L566 939L565 938z"/>
<path style="fill:#0ba1dc; stroke:none;" d="M670 938L671 939L670 938z"/>
<path style="fill:#e66ba3; stroke:none;" d="M294 939L295 940L294 939M352 939L353 940L352 939M363 939L364 940L363 939M479 939L480 940L479 939M525 939L526 940L525 939M537 939L538 940L537 939M554 939L555 940L554 939M612 939L613 940L612 939z"/>
<path style="fill:#0ba1dc; stroke:none;" d="M681 939L682 940L681 939z"/>
<path style="fill:#e66ba3; stroke:none;" d="M293 940L294 941L293 940M335 940L336 941L335 940M351 940L352 941L351 940M364 940L365 941L364 940M380 940L381 941L380 940M467 940L468 941L467 940M553 940L554 941L553 940M582 940L583 941L582 940M595 940L596 941L595 940z"/>
<path style="fill:#0ba1dc; stroke:none;" d="M653 940L654 941L653 940M698 940L699 941L698 940z"/>
<path style="fill:#e66ba3; stroke:none;" d="M727 940L728 941L727 940M249 941L250 942L249 941M292 941L293 942L292 941z"/>
<path style="fill:#0ba1dc; stroke:none;" d="M307 941L308 942L307 941z"/>
<path style="fill:#e66ba3; stroke:none;" d="M336 941L337 942L336 941M365 941L366 942L365 941M379 941L380 942L379 941M466 941L467 942L466 941M509 941L510 942L509 941M552 941L553 942L552 941M581 941L582 942L581 941z"/>
<path style="fill:#0ba1dc; stroke:none;" d="M654 941L655 942L654 941M668 941L669 942L668 941M697 941L698 942L697 941z"/>
<path style="fill:#e66ba3; stroke:none;" d="M726 941L727 942L726 941M280 942L281 943L280 942M291 942L292 943L291 942z"/>
<path style="fill:#0ba1dc; stroke:none;" d="M320 942L321 943L320 942z"/>
<path style="fill:#e66ba3; stroke:none;" d="M337 942L338 943L337 942M349 942L350 943L349 942M366 942L367 943L366 942M378 942L379 943L378 942M482 942L483 943L482 942M493 942L494 943L493 942M511 942L512 943L511 942M522 942L523 943L522 942M540 942L541 943L540 942M551 942L552 943L551 942M609 942L610 943L609 942z"/>
<path style="fill:#0ba1dc; stroke:none;" d="M684 942L685 943L684 942z"/>
<path style="fill:#e66ba3; stroke:none;" d="M252 943L253 944L252 943M260 943L261 944L260 943M282 943L283 944L282 943M288 943L289 944L288 943z"/>
<path style="fill:#0ba1dc; stroke:none;" d="M318 943L319 944L318 943z"/>
<path style="fill:#e66ba3; stroke:none;" d="M339 943L340 944L339 943M347 943L348 944L347 943M368 943L369 944L368 943M376 943L377 944L376 943M463 943L464 944L463 943M484 943L485 944L484 943M491 943L492 944L491 943M512.667 943.333L513.333 943.667L512.667 943.333M520 943L521 944L520 943M542 943L543 944L542 943M549 943L550 944L549 943M571 943L572 944L571 943M578 943L579 944L578 943M599 943L600 944L599 943z"/>
<path style="fill:#0ba1dc; stroke:none;" d="M657 943L658 944L657 943M664 943L665 944L664 943M694 943L695 944L694 943z"/>
<path style="fill:#e66ba3; stroke:none;" d="M723 943L724 944L723 943z"/>
</svg>
